<mxfile modified="2023-03-15T22:24:54.306Z" host="Electron" agent="5.0 (Windows NT 10.0; Win64; x64) AppleWebKit/537.36 (KHTML, like Gecko) draw.io/20.3.0 Chrome/104.0.5112.114 Electron/20.1.3 Safari/537.36" etag="p2nMScFv5omwh0oasIIp" compressed="false" version="20.3.0" type="device">
  <diagram id="MJK_XeAVS45mUTJX33J0" name="Privacy/Privacy Policy or Security Marking">
    <mxGraphModel dx="782" dy="517" grid="1" gridSize="10" guides="1" tooltips="1" connect="1" arrows="1" fold="1" page="1" pageScale="1" pageWidth="827" pageHeight="1169" math="0" shadow="0">
      <root>
        <mxCell id="gkE1_S4WVJf_kwzcQEd8-0" />
        <mxCell id="gkE1_S4WVJf_kwzcQEd8-1" value="Diagram" parent="gkE1_S4WVJf_kwzcQEd8-0" />
        <mxCell id="gkE1_S4WVJf_kwzcQEd8-13" value="Y" style="edgeStyle=orthogonalEdgeStyle;rounded=0;orthogonalLoop=1;jettySize=auto;html=1;entryX=0.5;entryY=0;entryDx=0;entryDy=0;fillColor=#d5e8d4;strokeColor=#82b366;strokeWidth=3;" parent="gkE1_S4WVJf_kwzcQEd8-1" source="gkE1_S4WVJf_kwzcQEd8-2" target="gkE1_S4WVJf_kwzcQEd8-6" edge="1">
          <mxGeometry relative="1" as="geometry" />
        </mxCell>
        <mxCell id="gkE1_S4WVJf_kwzcQEd8-17" style="edgeStyle=orthogonalEdgeStyle;rounded=0;orthogonalLoop=1;jettySize=auto;html=1;entryX=1;entryY=0.5;entryDx=0;entryDy=0;" parent="gkE1_S4WVJf_kwzcQEd8-1" source="gkE1_S4WVJf_kwzcQEd8-2" target="gkE1_S4WVJf_kwzcQEd8-14" edge="1">
          <mxGeometry relative="1" as="geometry" />
        </mxCell>
        <mxCell id="gkE1_S4WVJf_kwzcQEd8-2" value="" style="shape=mxgraph.bpmn.shape;html=1;verticalLabelPosition=bottom;labelBackgroundColor=#ffffff;verticalAlign=top;align=center;perimeter=rhombusPerimeter;background=gateway;outlineConnect=0;outline=none;symbol=exclusiveGw;fontFamily=Helvetica;fontSize=12;fontColor=#000000;strokeColor=#000000;fillColor=#ffffff;" parent="gkE1_S4WVJf_kwzcQEd8-1" vertex="1">
          <mxGeometry x="435" y="450" width="40" height="40" as="geometry" />
        </mxCell>
        <mxCell id="gkE1_S4WVJf_kwzcQEd8-22" style="edgeStyle=orthogonalEdgeStyle;rounded=0;orthogonalLoop=1;jettySize=auto;html=1;entryX=1;entryY=0.5;entryDx=0;entryDy=0;dashed=1;endArrow=none;endFill=0;" parent="gkE1_S4WVJf_kwzcQEd8-1" source="gkE1_S4WVJf_kwzcQEd8-4" target="gkE1_S4WVJf_kwzcQEd8-7" edge="1">
          <mxGeometry relative="1" as="geometry" />
        </mxCell>
        <mxCell id="gkE1_S4WVJf_kwzcQEd8-4" value="&lt;span style=&quot;background-color: rgb(255 , 255 , 255)&quot;&gt;&quot;Could unauthorised disclosure of the information cause harm to:&lt;/span&gt;&lt;br&gt;&lt;span style=&quot;background-color: rgb(255 , 255 , 255)&quot;&gt;- Government departments?&lt;/span&gt;&lt;br&gt;&lt;span style=&quot;background-color: rgb(255 , 255 , 255)&quot;&gt;-law enforcement agencies?&lt;/span&gt;&lt;br&gt;&lt;span style=&quot;background-color: rgb(255 , 255 , 255)&quot;&gt;- any person or organisation?&lt;/span&gt;&lt;br&gt;&lt;span style=&quot;background-color: rgb(255 , 255 , 255)&quot;&gt;OR&lt;/span&gt;&lt;br&gt;&lt;span style=&quot;background-color: rgb(255 , 255 , 255)&quot;&gt;Could unauthorised disclosure of this information give unfair advantage to any entity or violate somebody&#39;s right to privacy?&quot;&lt;/span&gt;" style="text;html=1;strokeColor=none;fillColor=none;align=left;verticalAlign=middle;whiteSpace=wrap;rounded=0;" parent="gkE1_S4WVJf_kwzcQEd8-1" vertex="1">
          <mxGeometry x="500" y="200" width="180" height="140" as="geometry" />
        </mxCell>
        <mxCell id="gkE1_S4WVJf_kwzcQEd8-29" style="edgeStyle=orthogonalEdgeStyle;rounded=0;orthogonalLoop=1;jettySize=auto;html=1;endArrow=classic;endFill=1;entryX=0.5;entryY=0;entryDx=0;entryDy=0;" parent="gkE1_S4WVJf_kwzcQEd8-1" source="gkE1_S4WVJf_kwzcQEd8-5" target="gkE1_S4WVJf_kwzcQEd8-25" edge="1">
          <mxGeometry relative="1" as="geometry">
            <mxPoint x="380" y="650" as="targetPoint" />
          </mxGeometry>
        </mxCell>
        <mxCell id="gkE1_S4WVJf_kwzcQEd8-5" value="The information is UNCLASSIFIED" style="shape=ext;rounded=1;html=1;whiteSpace=wrap;fillColor=#d5e8d4;strokeColor=#82b366;" parent="gkE1_S4WVJf_kwzcQEd8-1" vertex="1">
          <mxGeometry x="240" y="370" width="130" height="40" as="geometry" />
        </mxCell>
        <mxCell id="gkE1_S4WVJf_kwzcQEd8-6" value="The information is SENSITIVE" style="shape=ext;rounded=1;html=1;whiteSpace=wrap;fillColor=#ffe6cc;strokeColor=#d79b00;" parent="gkE1_S4WVJf_kwzcQEd8-1" vertex="1">
          <mxGeometry x="390" y="530" width="130" height="40" as="geometry" />
        </mxCell>
        <mxCell id="gkE1_S4WVJf_kwzcQEd8-10" value="N" style="edgeStyle=orthogonalEdgeStyle;rounded=0;orthogonalLoop=1;jettySize=auto;html=1;entryX=0.5;entryY=0;entryDx=0;entryDy=0;" parent="gkE1_S4WVJf_kwzcQEd8-1" source="gkE1_S4WVJf_kwzcQEd8-7" target="gkE1_S4WVJf_kwzcQEd8-5" edge="1">
          <mxGeometry relative="1" as="geometry" />
        </mxCell>
        <mxCell id="gkE1_S4WVJf_kwzcQEd8-11" value="Y" style="edgeStyle=orthogonalEdgeStyle;rounded=0;orthogonalLoop=1;jettySize=auto;html=1;entryX=0.5;entryY=0;entryDx=0;entryDy=0;fillColor=#d5e8d4;strokeColor=#82b366;strokeWidth=3;" parent="gkE1_S4WVJf_kwzcQEd8-1" source="gkE1_S4WVJf_kwzcQEd8-7" target="gkE1_S4WVJf_kwzcQEd8-9" edge="1">
          <mxGeometry relative="1" as="geometry">
            <Array as="points">
              <mxPoint x="380" y="330" />
              <mxPoint x="455" y="330" />
            </Array>
          </mxGeometry>
        </mxCell>
        <mxCell id="gkE1_S4WVJf_kwzcQEd8-7" value="" style="shape=mxgraph.bpmn.shape;html=1;verticalLabelPosition=bottom;labelBackgroundColor=#ffffff;verticalAlign=top;align=center;perimeter=rhombusPerimeter;background=gateway;outlineConnect=0;outline=none;symbol=exclusiveGw;fontFamily=Helvetica;fontSize=12;fontColor=#000000;strokeColor=#000000;fillColor=#ffffff;" parent="gkE1_S4WVJf_kwzcQEd8-1" vertex="1">
          <mxGeometry x="360" y="250" width="40" height="40" as="geometry" />
        </mxCell>
        <mxCell id="gkE1_S4WVJf_kwzcQEd8-23" style="edgeStyle=orthogonalEdgeStyle;rounded=0;orthogonalLoop=1;jettySize=auto;html=1;entryX=1;entryY=0.5;entryDx=0;entryDy=0;dashed=1;endArrow=none;endFill=0;" parent="gkE1_S4WVJf_kwzcQEd8-1" source="gkE1_S4WVJf_kwzcQEd8-8" target="gkE1_S4WVJf_kwzcQEd8-2" edge="1">
          <mxGeometry relative="1" as="geometry" />
        </mxCell>
        <mxCell id="gkE1_S4WVJf_kwzcQEd8-8" value="&lt;span style=&quot;background-color: rgb(255 , 255 , 255)&quot;&gt;&quot;Does it need some, but not a high degree of protection?&lt;br&gt;&lt;/span&gt;&lt;br&gt;Test: could unauthorised release of the information damage the interests of NZ and/or endager the safety of its citizens?&quot;" style="text;html=1;strokeColor=none;fillColor=none;align=left;verticalAlign=middle;whiteSpace=wrap;rounded=0;" parent="gkE1_S4WVJf_kwzcQEd8-1" vertex="1">
          <mxGeometry x="560" y="395" width="120" height="150" as="geometry" />
        </mxCell>
        <mxCell id="gkE1_S4WVJf_kwzcQEd8-12" style="edgeStyle=orthogonalEdgeStyle;rounded=0;orthogonalLoop=1;jettySize=auto;html=1;entryX=0.5;entryY=0;entryDx=0;entryDy=0;fillColor=#d5e8d4;strokeColor=#82b366;strokeWidth=3;" parent="gkE1_S4WVJf_kwzcQEd8-1" source="gkE1_S4WVJf_kwzcQEd8-9" target="gkE1_S4WVJf_kwzcQEd8-2" edge="1">
          <mxGeometry relative="1" as="geometry" />
        </mxCell>
        <mxCell id="gkE1_S4WVJf_kwzcQEd8-9" value="The information needs a POLICY or PRIVACY SECURITY marking" style="shape=ext;rounded=1;html=1;whiteSpace=wrap;" parent="gkE1_S4WVJf_kwzcQEd8-1" vertex="1">
          <mxGeometry x="390" y="370" width="130" height="40" as="geometry" />
        </mxCell>
        <mxCell id="gkE1_S4WVJf_kwzcQEd8-18" value="N" style="edgeStyle=orthogonalEdgeStyle;rounded=0;orthogonalLoop=1;jettySize=auto;html=1;entryX=0.5;entryY=1;entryDx=0;entryDy=0;" parent="gkE1_S4WVJf_kwzcQEd8-1" source="gkE1_S4WVJf_kwzcQEd8-14" target="gkE1_S4WVJf_kwzcQEd8-5" edge="1">
          <mxGeometry relative="1" as="geometry" />
        </mxCell>
        <mxCell id="gkE1_S4WVJf_kwzcQEd8-20" value="Y" style="edgeStyle=orthogonalEdgeStyle;rounded=0;orthogonalLoop=1;jettySize=auto;html=1;entryX=0.5;entryY=0;entryDx=0;entryDy=0;fillColor=#d5e8d4;strokeColor=#82b366;strokeWidth=3;" parent="gkE1_S4WVJf_kwzcQEd8-1" source="gkE1_S4WVJf_kwzcQEd8-14" target="gkE1_S4WVJf_kwzcQEd8-19" edge="1">
          <mxGeometry relative="1" as="geometry" />
        </mxCell>
        <mxCell id="gkE1_S4WVJf_kwzcQEd8-14" value="" style="shape=mxgraph.bpmn.shape;html=1;verticalLabelPosition=bottom;labelBackgroundColor=#ffffff;verticalAlign=top;align=center;perimeter=rhombusPerimeter;background=gateway;outlineConnect=0;outline=none;symbol=exclusiveGw;fontFamily=Helvetica;fontSize=12;fontColor=#000000;strokeColor=#000000;fillColor=#ffffff;" parent="gkE1_S4WVJf_kwzcQEd8-1" vertex="1">
          <mxGeometry x="285" y="450" width="40" height="40" as="geometry" />
        </mxCell>
        <mxCell id="gkE1_S4WVJf_kwzcQEd8-24" style="edgeStyle=orthogonalEdgeStyle;rounded=0;orthogonalLoop=1;jettySize=auto;html=1;entryX=0;entryY=0.5;entryDx=0;entryDy=0;dashed=1;endArrow=none;endFill=0;" parent="gkE1_S4WVJf_kwzcQEd8-1" source="gkE1_S4WVJf_kwzcQEd8-15" target="gkE1_S4WVJf_kwzcQEd8-14" edge="1">
          <mxGeometry relative="1" as="geometry" />
        </mxCell>
        <mxCell id="gkE1_S4WVJf_kwzcQEd8-15" value="&lt;span style=&quot;background-color: rgb(255 , 255 , 255)&quot;&gt;&quot;Does it need a limited degree of protection?&lt;br&gt;&lt;br&gt;Test: could unauthorised release of the information prejudice the maintenance of law and order, impede the effective conduct of government in NZ and/or affect adversely the privacy of its citizens?&quot;&lt;br&gt;&lt;/span&gt;" style="text;html=1;strokeColor=none;fillColor=none;align=left;verticalAlign=middle;whiteSpace=wrap;rounded=0;" parent="gkE1_S4WVJf_kwzcQEd8-1" vertex="1">
          <mxGeometry x="120" y="340" width="110" height="260" as="geometry" />
        </mxCell>
        <mxCell id="gkE1_S4WVJf_kwzcQEd8-28" style="edgeStyle=orthogonalEdgeStyle;rounded=0;orthogonalLoop=1;jettySize=auto;html=1;entryX=0.5;entryY=0;entryDx=0;entryDy=0;endArrow=classic;endFill=1;strokeWidth=2;fillColor=#d5e8d4;strokeColor=#82b366;" parent="gkE1_S4WVJf_kwzcQEd8-1" source="gkE1_S4WVJf_kwzcQEd8-19" target="gkE1_S4WVJf_kwzcQEd8-25" edge="1">
          <mxGeometry relative="1" as="geometry" />
        </mxCell>
        <mxCell id="gkE1_S4WVJf_kwzcQEd8-19" value="The information is IN-CONFIDENCE" style="shape=ext;rounded=1;html=1;whiteSpace=wrap;fillColor=#fff2cc;strokeColor=#d6b656;" parent="gkE1_S4WVJf_kwzcQEd8-1" vertex="1">
          <mxGeometry x="240" y="530" width="130" height="40" as="geometry" />
        </mxCell>
        <mxCell id="gkE1_S4WVJf_kwzcQEd8-25" value="End" style="shape=mxgraph.bpmn.shape;html=1;verticalLabelPosition=bottom;labelBackgroundColor=#ffffff;verticalAlign=top;align=center;perimeter=ellipsePerimeter;outlineConnect=0;outline=end;symbol=terminate;" parent="gkE1_S4WVJf_kwzcQEd8-1" vertex="1">
          <mxGeometry x="200" y="600" width="30" height="30" as="geometry" />
        </mxCell>
        <mxCell id="gkE1_S4WVJf_kwzcQEd8-27" style="edgeStyle=orthogonalEdgeStyle;rounded=0;orthogonalLoop=1;jettySize=auto;html=1;entryX=0.5;entryY=0;entryDx=0;entryDy=0;endArrow=classic;endFill=1;fillColor=#d5e8d4;strokeColor=#82b366;strokeWidth=2;" parent="gkE1_S4WVJf_kwzcQEd8-1" source="gkE1_S4WVJf_kwzcQEd8-26" target="gkE1_S4WVJf_kwzcQEd8-7" edge="1">
          <mxGeometry relative="1" as="geometry" />
        </mxCell>
        <mxCell id="gkE1_S4WVJf_kwzcQEd8-26" value="Start" style="shape=mxgraph.bpmn.shape;html=1;verticalLabelPosition=bottom;labelBackgroundColor=#ffffff;verticalAlign=top;align=center;perimeter=ellipsePerimeter;outlineConnect=0;outline=standard;symbol=general;" parent="gkE1_S4WVJf_kwzcQEd8-1" vertex="1">
          <mxGeometry x="365" y="165" width="30" height="30" as="geometry" />
        </mxCell>
        <mxCell id="VeIg465drX5wpryKY_6S-1" value="Title/Diagram" parent="gkE1_S4WVJf_kwzcQEd8-0" visible="0" />
        <mxCell id="VeIg465drX5wpryKY_6S-0" value="&lt;font style=&quot;font-size: 12px&quot;&gt;&lt;span style=&quot;font-size: 12px&quot;&gt;Diagram: Base System Logical Module -&amp;nbsp;&lt;/span&gt;Privacy- Policy or Privacy Security Marking determination&lt;/font&gt;" style="text;strokeColor=none;fillColor=none;html=1;fontSize=24;fontStyle=2;verticalAlign=middle;align=left;shadow=0;glass=0;comic=0;opacity=30;fontColor=#808080;" parent="VeIg465drX5wpryKY_6S-1" vertex="1">
          <mxGeometry x="120" y="660" width="520" height="20" as="geometry" />
        </mxCell>
      </root>
    </mxGraphModel>
  </diagram>
</mxfile>
